<svg width="21" height="21" viewBox="0 0 21 21" fill="none" xmlns="http://www.w3.org/2000/svg">
<g clip-path="url(#clip0)">
<path fill-rule="evenodd" clip-rule="evenodd" d="M6.16937 14.2755C6.49481 13.9501 7.02245 13.9501 7.34788 14.2755L10.092 17.0196L12.836 14.2755C13.1615 13.9501 13.6891 13.9501 14.0145 14.2755C14.34 14.6009 14.34 15.1286 14.0145 15.454L10.6812 18.7874C10.3558 19.1128 9.82814 19.1128 9.5027 18.7874L6.16937 15.454C5.84393 15.1286 5.84393 14.6009 6.16937 14.2755Z" fill="white"/>
<path fill-rule="evenodd" clip-rule="evenodd" d="M10.0919 9.86481C10.5521 9.86481 10.9252 10.2379 10.9252 10.6981V18.1981C10.9252 18.6584 10.5521 19.0315 10.0919 19.0315C9.63164 19.0315 9.25854 18.6584 9.25854 18.1981V10.6981C9.25854 10.2379 9.63164 9.86481 10.0919 9.86481Z" fill="white"/>
<path fill-rule="evenodd" clip-rule="evenodd" d="M7.31493 2.35995C8.44867 2.31918 9.57688 2.53613 10.6146 2.99448C11.6524 3.45283 12.5726 4.14063 13.3061 5.0061C13.8982 5.70473 14.3561 6.50444 14.659 7.36481L15.0913 7.36481C16.1539 7.36412 17.1897 7.70197 18.0474 8.32937C18.9052 8.9569 19.5407 9.84145 19.8617 10.8546C20.1827 11.8678 20.1725 12.957 19.8326 13.964C19.4927 14.971 18.8407 15.8435 17.9713 16.4548C17.5948 16.7196 17.075 16.629 16.8103 16.2525C16.5455 15.876 16.6361 15.3562 17.0126 15.0915C17.5922 14.6839 18.0268 14.1022 18.2535 13.4309C18.4801 12.7596 18.4869 12.0335 18.2729 11.358C18.0589 10.6826 17.6352 10.0929 17.0633 9.67452C16.4914 9.25617 15.8011 9.03093 15.0926 9.03148H14.0419C13.6615 9.03148 13.3293 8.77379 13.2348 8.40527C13.0155 7.55059 12.6051 6.7568 12.0346 6.08366C11.4642 5.41051 10.7484 4.87556 9.94127 4.51906C9.13412 4.16257 8.25663 3.99383 7.37483 4.02554C6.49304 4.05725 5.62993 4.28859 4.85048 4.70214C4.07103 5.11569 3.39555 5.70068 2.8749 6.41306C2.35425 7.12544 2.00199 7.94665 1.84464 8.81487C1.68729 9.6831 1.72896 10.5757 1.9665 11.4255C2.20404 12.2753 2.63126 13.0601 3.21601 13.7209C3.52101 14.0656 3.48886 14.5922 3.1442 14.8972C2.79954 15.2022 2.27288 15.1701 1.96788 14.8254C1.21606 13.9758 0.666768 12.9668 0.361359 11.8742C0.0559505 10.7816 0.00238161 9.63395 0.204686 8.51767C0.406989 7.40138 0.859894 6.34554 1.5293 5.42962C2.19871 4.5137 3.06718 3.76157 4.06933 3.22986C5.07148 2.69815 6.1812 2.40072 7.31493 2.35995Z" fill="white"/>
</g>
<defs>
<clipPath id="clip0">
<rect x="0.0919189" y="0.69812" width="20" height="20" fill="white"/>
</clipPath>
</defs>
</svg>
