<svg width="16" height="16" viewBox="0 0 16 16" fill="none" xmlns="http://www.w3.org/2000/svg">
<path d="M13.7733 4.6535C13.1915 3.64531 12.3543 2.8083 11.3459 2.22683C10.3239 1.6315 9.20859 1.3335 7.99992 1.3335C6.79125 1.3335 5.67592 1.6315 4.65325 2.22683C3.63125 2.82216 2.82192 3.6315 2.22659 4.6535C1.63125 5.6755 1.33325 6.7915 1.33325 8.00016C1.33325 9.20883 1.63059 10.3248 2.22659 11.3468C2.80813 12.3552 3.64542 13.1922 4.65392 13.7735C5.67592 14.3688 6.79125 14.6668 7.99992 14.6668C9.20859 14.6668 10.3239 14.3688 11.3466 13.7735C12.3549 13.192 13.1922 12.355 13.7739 11.3468C14.3693 10.3248 14.6666 9.20883 14.6666 8.00016C14.6666 6.7915 14.3693 5.6755 13.7733 4.6535ZM7.99992 2.44016C9.33325 2.44016 10.5146 2.86683 11.5466 3.7195C10.9333 4.50216 10.0226 5.14616 8.81325 5.65283C8.14525 4.44416 7.42125 3.43483 6.63925 2.62616C7.08245 2.50362 7.54009 2.44106 7.99992 2.44016V2.44016ZM3.67325 4.5335C4.16074 3.91445 4.77756 3.40934 5.48059 3.0535C6.28859 3.85416 7.03059 4.8535 7.70725 6.0535C6.37392 6.4535 4.96459 6.6535 3.47992 6.6535C3.09792 6.6535 2.80925 6.64483 2.61325 6.62683C2.81757 5.86308 3.17855 5.1502 3.67325 4.5335V4.5335ZM2.43992 8.00016C2.43992 7.96416 2.44192 7.92016 2.44659 7.86683C2.45125 7.8135 2.45325 7.7695 2.45325 7.7335C2.62259 7.74283 2.88059 7.74683 3.22725 7.74683C5.00459 7.74683 6.65792 7.50216 8.18659 7.0135C8.31125 7.26216 8.44059 7.54216 8.57325 7.8535C7.69325 8.04883 6.79059 8.52416 5.86592 9.28016C4.94125 10.0362 4.26659 10.8315 3.83992 11.6668C2.90659 10.6088 2.43992 9.38683 2.43992 8.00016V8.00016ZM7.99992 13.5602C6.73725 13.5602 5.60392 13.1688 4.59925 12.3875C4.99992 11.5962 5.61525 10.8395 6.44659 10.1202C7.27725 9.40016 8.10192 8.9515 8.91992 8.7735C9.43592 10.1995 9.78491 11.6805 9.95992 13.1868C9.33516 13.431 8.67067 13.5575 7.99992 13.5602V13.5602ZM12.7199 10.9202C12.2836 11.6232 11.696 12.2201 10.9999 12.6675C10.8399 11.2808 10.5333 9.9295 10.0806 8.6135C10.7019 8.5695 11.2573 8.54683 11.7473 8.54683C12.2799 8.54683 12.8713 8.5695 13.5199 8.6135C13.4329 9.43339 13.1592 10.2225 12.7199 10.9202ZM11.8933 7.58683C11.1199 7.58683 10.4046 7.61816 9.74659 7.68016C9.60721 7.31535 9.45602 6.95516 9.29325 6.60016C10.6706 5.99616 11.6479 5.26283 12.2259 4.40016C13.0259 5.34283 13.4619 6.41816 13.5326 7.62683C12.9913 7.60016 12.4446 7.58683 11.8933 7.58683V7.58683Z" fill="white"/>
</svg>
