<svg width="319" height="102" viewBox="0 0 319 102" fill="none" xmlns="http://www.w3.org/2000/svg">
<path fill-rule="evenodd" clip-rule="evenodd" d="M319 1C319 0.447715 318.552 0 318 0C317.448 0 317 0.447715 317 1C317 23.6437 298.644 42 276 42H64.5021C32.7962 42 7.02038 67.2098 6.02749 98.6133L1.70711 94.2929C1.31658 93.9024 0.683418 93.9024 0.292893 94.2929C-0.0976311 94.6834 -0.0976311 95.3166 0.292893 95.7071L6.28993 101.704C6.29825 101.713 6.30673 101.721 6.31535 101.729C6.40618 101.814 6.50914 101.88 6.61841 101.925C6.70854 101.962 6.80528 101.986 6.90632 101.996C6.93997 101.999 6.97409 102 7.00861 102C7.01854 102 7.02848 102 7.03841 101.999C7.28138 101.99 7.52162 101.893 7.70711 101.707L13.7071 95.7071C14.0976 95.3166 14.0976 94.6834 13.7071 94.2929C13.3166 93.9024 12.6834 93.9024 12.2929 94.2929L8.03048 98.5553C9.05255 68.2824 33.9214 44 64.5021 44H276C299.748 44 319 24.7482 319 1Z" fill="url(#paint0_linear)"/>
<defs>
<linearGradient id="paint0_linear" x1="318" y1="1.00001" x2="7.00001" y2="101" gradientUnits="userSpaceOnUse">
<stop stop-color="#2C71E7" stop-opacity="0"/>
<stop offset="1" stop-color="#2C71E7"/>
</linearGradient>
</defs>
</svg>
