<svg width="16" height="16" viewBox="0 0 16 16" fill="none" xmlns="http://www.w3.org/2000/svg">
<path d="M10.16 8.0001C10.16 6.8001 9.19998 5.8401 7.99998 5.8401C6.79998 5.8401 5.83998 6.8001 5.83998 8.0001C5.83998 9.2001 6.79998 10.1601 7.99998 10.1601C9.19998 10.1601 10.16 9.2001 10.16 8.0001ZM11.28 8.0001C11.28 9.8401 9.83998 11.2801 7.99998 11.2801C6.15998 11.2801 4.71998 9.8401 4.71998 8.0001C4.71998 6.1601 6.15998 4.7201 7.99998 4.7201C9.83998 4.7201 11.28 6.1601 11.28 8.0001ZM12.16 4.5601C12.16 5.0401 11.84 5.3601 11.36 5.3601C10.88 5.3601 10.56 5.0401 10.56 4.5601C10.56 4.0801 10.88 3.7601 11.36 3.7601C11.84 3.7601 12.16 4.1601 12.16 4.5601ZM7.99998 2.7201C7.03998 2.7201 5.03998 2.6401 4.23998 2.9601C3.67998 3.2001 3.19998 3.6801 3.03998 4.2401C2.71998 5.0401 2.79998 7.0401 2.79998 8.0001C2.79998 8.9601 2.71998 10.9601 3.03998 11.7601C3.19998 12.3201 3.67998 12.8001 4.23998 12.9601C5.03998 13.2801 7.11998 13.2001 7.99998 13.2001C8.87998 13.2001 10.96 13.2801 11.76 12.9601C12.32 12.7201 12.72 12.3201 12.96 11.7601C13.28 10.8801 13.2 8.8801 13.2 8.0001C13.2 7.1201 13.28 5.0401 12.96 4.2401C12.8 3.6801 12.32 3.2001 11.76 3.0401C10.96 2.6401 8.95998 2.7201 7.99998 2.7201ZM14.4 8.0001V10.6401C14.4 11.6001 14.08 12.5601 13.36 13.3601C12.64 14.0801 11.68 14.4001 10.64 14.4001H5.35998C4.39998 14.4001 3.43998 14.0801 2.63998 13.3601C1.99998 12.6401 1.59998 11.6801 1.59998 10.6401V8.0001V5.3601C1.59998 4.3201 1.99998 3.3601 2.63998 2.6401C3.43998 2.0001 4.39998 1.6001 5.35998 1.6001H10.64C11.6 1.6001 12.56 1.9201 13.36 2.6401C14 3.3601 14.4 4.3201 14.4 5.3601V8.0001Z" fill="white"/>
</svg>
