<svg width="16" height="16" viewBox="0 0 16 16" fill="none" xmlns="http://www.w3.org/2000/svg">
<path d="M4.87543 14V5.90362H2.1602V14H4.87543ZM3.51817 4.79753C4.46502 4.79753 5.05439 4.17583 5.05439 3.3989C5.03674 2.60445 4.46505 2 3.53613 2C2.60736 2 2 2.60446 2 3.3989C2 4.17586 2.58922 4.79753 3.50044 4.79753H3.51817ZM6.37831 14H9.09354V9.47858C9.09354 9.23661 9.11118 8.99488 9.18289 8.8219C9.37918 8.33843 9.82594 7.83769 10.576 7.83769C11.5585 7.83769 11.9516 8.58016 11.9516 9.66856V13.9999H14.6667V9.35755C14.6667 6.87066 13.3271 5.71354 11.5407 5.71354C10.0759 5.71354 9.43277 6.525 9.07548 7.07769H9.0936V5.90345H6.37837C6.414 6.66317 6.37831 14 6.37831 14Z" fill="white"/>
</svg>
