<svg width="24" height="24" viewBox="0 0 24 24" fill="none" xmlns="http://www.w3.org/2000/svg">
<path d="M7.31315 21V8.85543H3.2403V21H7.31315ZM5.27725 7.1963C6.69752 7.1963 7.58158 6.26374 7.58158 5.09835C7.55512 3.90668 6.69758 3 5.3042 3C3.91104 3 3 3.90669 3 5.09835C3 6.26379 3.88384 7.1963 5.25066 7.1963H5.27725ZM9.56746 21H13.6403V14.2179C13.6403 13.8549 13.6668 13.4923 13.7743 13.2328C14.0688 12.5076 14.7389 11.7565 15.864 11.7565C17.3378 11.7565 17.9274 12.8702 17.9274 14.5028V20.9999H22V14.0363C22 10.306 19.9907 8.57031 17.311 8.57031C15.1138 8.57031 14.1491 9.78751 13.6132 10.6165H13.6404V8.85518H9.56755C9.621 9.99476 9.56746 21 9.56746 21Z" fill="black"/>
</svg>
